<svg xmlns="http://www.w3.org/2000/svg" viewBox="0 0 100 100" width="100%" height="100%">
    <defs>
        <pattern id="cyber-grid" width="10" height="10" patternUnits="userSpaceOnUse">
            <line x1="0" y1="0" x2="10" y2="0" stroke="#f43f5e" stroke-width="0.5" opacity="0.3"/>
            <line x1="0" y1="0" x2="0" y2="10" stroke="#f43f5e" stroke-width="0.5" opacity="0.3"/>
        </pattern>
    </defs>
    <g fill="#0f172a" stroke="#f43f5e" stroke-width="3" stroke-linejoin="miter">
        <path d="M47 14 L53 14 L53 20 L59 20 L59 26 L53 26 L53 32 L47 32 L47 26 L41 26 L41 20 L47 20 Z" /><path d="M32 36 C24 45, 30 68, 34 72 L66 72 C70 68, 76 45, 68 36 C60 42, 56 36, 50 38 C44 36, 40 42, 32 36 Z" /><rect x="28" y="72" width="44" height="10" rx="3" /><rect x="22" y="82" width="56" height="8" rx="2" />
    </g>
    <circle cx="50" cy="50" r="3" fill="#fb7185" />
    <g stroke="#fb7185" stroke-width="2">
        <ellipse cx="50" cy="56" rx="8" ry="4" opacity="0.3" fill="white" />
    </g>
</svg>