<svg xmlns="http://www.w3.org/2000/svg" viewBox="0 0 100 100" width="100%" height="100%">
    <g fill="#f8fafc" stroke="#1e293b" stroke-width="3.5" stroke-linejoin="round" stroke-linecap="round">
        <path d="M47 14 L53 14 L53 20 L59 20 L59 26 L53 26 L53 32 L47 32 L47 26 L41 26 L41 20 L47 20 Z" /><path d="M32 36 C24 45, 30 68, 34 72 L66 72 C70 68, 76 45, 68 36 C60 42, 56 36, 50 38 C44 36, 40 42, 32 36 Z" /><rect x="28" y="72" width="44" height="10" rx="3" /><rect x="22" y="82" width="56" height="8" rx="2" />
    </g>
    <g stroke="#0f172a">
        <ellipse cx="50" cy="56" rx="8" ry="4" opacity="0.3" fill="white" />
    </g>
</svg>