<svg xmlns="http://www.w3.org/2000/svg" viewBox="0 0 100 100" width="100%" height="100%">
    <defs>
        <linearGradient id="grad-pearl" x1="0%" y1="0%" x2="100%" y2="100%">
            <stop offset="0%" stop-color="#ffffff" />
            <stop offset="60%" stop-color="#e2e8f0" />
            <stop offset="100%" stop-color="#cbd5e1" />
        </linearGradient>
        <linearGradient id="grad-obsidian" x1="0%" y1="0%" x2="100%" y2="100%">
            <stop offset="0%" stop-color="#1e293b" />
            <stop offset="50%" stop-color="#090d16" />
            <stop offset="100%" stop-color="#020617" />
        </linearGradient>
    </defs>
    <g fill="url(#grad-obsidian)" stroke="#64748b" stroke-width="3" stroke-linejoin="round" stroke-linecap="round">
        <path d="M47 14 L53 14 L53 20 L59 20 L59 26 L53 26 L53 32 L47 32 L47 26 L41 26 L41 20 L47 20 Z" /><path d="M32 36 C24 45, 30 68, 34 72 L66 72 C70 68, 76 45, 68 36 C60 42, 56 36, 50 38 C44 36, 40 42, 32 36 Z" /><rect x="28" y="72" width="44" height="10" rx="3" /><rect x="22" y="82" width="56" height="8" rx="2" />
    </g>
    <g stroke="#38bdf8" stroke-width="1.5">
        <ellipse cx="50" cy="56" rx="8" ry="4" opacity="0.3" fill="white" />
    </g>
</svg>